# xmcd CD database file
#
# Track frame offsets:
#	150
#	73790
#	144677
#
# Disc length: 3332 seconds
#
# Revision: 0
# Processed by: cddbd v1.5.2PL0 Copyright (c) Steve Scherf et al.
# Submitted via: CDex 1.70beta2
#
DISCID=2b0d0203
DTITLE=Kang Taehwan - Asian Spirits
DYEAR=1900
DGENRE=Jazz
TTITLE0=Improvisation 1 (Solo)
TTITLE1=Improvisation 2 (Duo)
TTITLE2=Improvisation 3 (Trio)
EXTD=
EXTT0=
EXTT1=
EXTT2=
PLAYORDER=
